<mxfile host="app.diagrams.net" modified="2024-01-30T10:20:00.385Z" agent="Mozilla/5.0 (Windows NT 10.0; Win64; x64) AppleWebKit/537.36 (KHTML, like Gecko) Chrome/121.0.0.0 Safari/537.36 Edg/121.0.0.0" etag="gr0sHub4AP0vHeJl9HMF" version="23.0.2" type="github">
  <diagram name="Page-1" id="s-lUBnnHcnyzNOGmpygZ">
    <mxGraphModel dx="786" dy="477" grid="1" gridSize="10" guides="1" tooltips="1" connect="1" arrows="1" fold="1" page="1" pageScale="1" pageWidth="1169" pageHeight="827" math="0" shadow="0">
      <root>
        <mxCell id="0" />
        <mxCell id="1" parent="0" />
        <mxCell id="IM_cWWmqs1kDZaDalGmC-6" style="edgeStyle=orthogonalEdgeStyle;rounded=0;orthogonalLoop=1;jettySize=auto;html=1;exitX=0.5;exitY=0.5;exitDx=0;exitDy=20;exitPerimeter=0;entryX=0.5;entryY=0;entryDx=0;entryDy=0;" edge="1" parent="1" source="IM_cWWmqs1kDZaDalGmC-1" target="IM_cWWmqs1kDZaDalGmC-2">
          <mxGeometry relative="1" as="geometry" />
        </mxCell>
        <mxCell id="IM_cWWmqs1kDZaDalGmC-1" value="Start" style="html=1;dashed=0;whiteSpace=wrap;shape=mxgraph.dfd.start;fontSize=11;" vertex="1" parent="1">
          <mxGeometry x="80" y="40" width="160" height="40" as="geometry" />
        </mxCell>
        <mxCell id="IM_cWWmqs1kDZaDalGmC-7" style="edgeStyle=orthogonalEdgeStyle;rounded=0;orthogonalLoop=1;jettySize=auto;html=1;exitX=0.5;exitY=1;exitDx=0;exitDy=0;entryX=0.5;entryY=0;entryDx=0;entryDy=0;" edge="1" parent="1" source="IM_cWWmqs1kDZaDalGmC-2" target="IM_cWWmqs1kDZaDalGmC-3">
          <mxGeometry relative="1" as="geometry" />
        </mxCell>
        <mxCell id="IM_cWWmqs1kDZaDalGmC-2" value="&lt;font style=&quot;font-size: 11px;&quot;&gt;BAdI Definition&lt;br&gt;ME_REQ_POSTED&lt;br&gt;&lt;/font&gt;" style="shape=process;whiteSpace=wrap;html=1;backgroundOutline=1;fontSize=11;size=0.041666666666666664;" vertex="1" parent="1">
          <mxGeometry x="60" y="100" width="200" height="50" as="geometry" />
        </mxCell>
        <mxCell id="IM_cWWmqs1kDZaDalGmC-8" style="edgeStyle=orthogonalEdgeStyle;rounded=0;orthogonalLoop=1;jettySize=auto;html=1;exitX=0.5;exitY=1;exitDx=0;exitDy=0;entryX=0.5;entryY=0;entryDx=0;entryDy=0;" edge="1" parent="1" source="IM_cWWmqs1kDZaDalGmC-3" target="IM_cWWmqs1kDZaDalGmC-4">
          <mxGeometry relative="1" as="geometry" />
        </mxCell>
        <mxCell id="IM_cWWmqs1kDZaDalGmC-3" value="&lt;font style=&quot;font-size: 11px;&quot;&gt;BAdI Implementation&lt;br&gt;ZMMME_REQ_POSTED&lt;br&gt;&lt;/font&gt;" style="shape=process;whiteSpace=wrap;html=1;backgroundOutline=1;fontSize=11;size=0.041666666666666664;" vertex="1" parent="1">
          <mxGeometry x="60" y="170" width="200" height="50" as="geometry" />
        </mxCell>
        <mxCell id="IM_cWWmqs1kDZaDalGmC-12" style="edgeStyle=orthogonalEdgeStyle;rounded=0;orthogonalLoop=1;jettySize=auto;html=1;exitX=1;exitY=0.5;exitDx=0;exitDy=0;entryX=0;entryY=0.5;entryDx=0;entryDy=0;" edge="1" parent="1" source="IM_cWWmqs1kDZaDalGmC-4" target="IM_cWWmqs1kDZaDalGmC-11">
          <mxGeometry relative="1" as="geometry" />
        </mxCell>
        <mxCell id="IM_cWWmqs1kDZaDalGmC-4" value="&lt;font style=&quot;font-size: 11px;&quot;&gt;Class Implementation&lt;br&gt;ZCL_IM_MME_REQ_POSTED&lt;br&gt;&lt;/font&gt;" style="shape=process;whiteSpace=wrap;html=1;backgroundOutline=1;fontSize=11;size=0.041666666666666664;" vertex="1" parent="1">
          <mxGeometry x="60" y="240" width="200" height="50" as="geometry" />
        </mxCell>
        <mxCell id="IM_cWWmqs1kDZaDalGmC-5" value="End" style="html=1;dashed=0;whiteSpace=wrap;shape=mxgraph.dfd.start;fontSize=11;" vertex="1" parent="1">
          <mxGeometry x="80" y="310" width="160" height="40" as="geometry" />
        </mxCell>
        <mxCell id="IM_cWWmqs1kDZaDalGmC-9" style="edgeStyle=orthogonalEdgeStyle;rounded=0;orthogonalLoop=1;jettySize=auto;html=1;exitX=0.5;exitY=1;exitDx=0;exitDy=0;entryX=0.5;entryY=0.5;entryDx=0;entryDy=-20;entryPerimeter=0;" edge="1" parent="1" source="IM_cWWmqs1kDZaDalGmC-4" target="IM_cWWmqs1kDZaDalGmC-5">
          <mxGeometry relative="1" as="geometry" />
        </mxCell>
        <mxCell id="IM_cWWmqs1kDZaDalGmC-11" value="&lt;font style=&quot;font-size: 11px;&quot;&gt;A&lt;/font&gt;" style="ellipse;whiteSpace=wrap;html=1;aspect=fixed;" vertex="1" parent="1">
          <mxGeometry x="290" y="250" width="30" height="30" as="geometry" />
        </mxCell>
        <mxCell id="IM_cWWmqs1kDZaDalGmC-19" style="edgeStyle=orthogonalEdgeStyle;rounded=0;orthogonalLoop=1;jettySize=auto;html=1;exitX=0.5;exitY=1;exitDx=0;exitDy=0;entryX=0.5;entryY=0;entryDx=0;entryDy=0;" edge="1" parent="1" source="IM_cWWmqs1kDZaDalGmC-13" target="IM_cWWmqs1kDZaDalGmC-14">
          <mxGeometry relative="1" as="geometry" />
        </mxCell>
        <mxCell id="IM_cWWmqs1kDZaDalGmC-13" value="&lt;font style=&quot;font-size: 11px;&quot;&gt;A&lt;/font&gt;" style="ellipse;whiteSpace=wrap;html=1;aspect=fixed;" vertex="1" parent="1">
          <mxGeometry x="450" y="45" width="30" height="30" as="geometry" />
        </mxCell>
        <mxCell id="IM_cWWmqs1kDZaDalGmC-20" style="edgeStyle=orthogonalEdgeStyle;rounded=0;orthogonalLoop=1;jettySize=auto;html=1;exitX=0.5;exitY=1;exitDx=0;exitDy=0;entryX=0.5;entryY=0;entryDx=0;entryDy=0;" edge="1" parent="1" source="IM_cWWmqs1kDZaDalGmC-14" target="IM_cWWmqs1kDZaDalGmC-15">
          <mxGeometry relative="1" as="geometry" />
        </mxCell>
        <mxCell id="IM_cWWmqs1kDZaDalGmC-14" value="Check SY-TCODE &lt;br style=&quot;font-size: 11px;&quot;&gt;IF EQ &#39;ME55&#39; &lt;br&gt;OR &#39;ME54&#39;" style="rhombus;whiteSpace=wrap;html=1;fontSize=11;spacingTop=6;" vertex="1" parent="1">
          <mxGeometry x="386.25" y="100" width="157.5" height="100" as="geometry" />
        </mxCell>
        <mxCell id="IM_cWWmqs1kDZaDalGmC-21" style="edgeStyle=orthogonalEdgeStyle;rounded=0;orthogonalLoop=1;jettySize=auto;html=1;exitX=0.5;exitY=1;exitDx=0;exitDy=0;entryX=0.5;entryY=0;entryDx=0;entryDy=0;" edge="1" parent="1" source="IM_cWWmqs1kDZaDalGmC-15" target="IM_cWWmqs1kDZaDalGmC-16">
          <mxGeometry relative="1" as="geometry" />
        </mxCell>
        <mxCell id="IM_cWWmqs1kDZaDalGmC-15" value="&lt;font style=&quot;font-size: 11px;&quot;&gt;Perform Subroutine ADD_WORKINGDAYS_BY_PLANT&lt;br&gt;Returning EARLIST_REL_DATE&lt;br&gt;&lt;/font&gt;" style="shape=process;whiteSpace=wrap;html=1;backgroundOutline=1;fontSize=11;size=0.041666666666666664;" vertex="1" parent="1">
          <mxGeometry x="365" y="220" width="200" height="50" as="geometry" />
        </mxCell>
        <mxCell id="IM_cWWmqs1kDZaDalGmC-26" style="edgeStyle=orthogonalEdgeStyle;rounded=0;orthogonalLoop=1;jettySize=auto;html=1;exitX=0;exitY=0.5;exitDx=0;exitDy=0;" edge="1" parent="1" source="IM_cWWmqs1kDZaDalGmC-16">
          <mxGeometry relative="1" as="geometry">
            <mxPoint x="340" y="340" as="targetPoint" />
          </mxGeometry>
        </mxCell>
        <mxCell id="IM_cWWmqs1kDZaDalGmC-16" value="Check SY-DATUM&lt;br style=&quot;font-size: 11px;&quot;&gt;IF Less than EARLIST_REL_DATE&amp;nbsp;" style="rhombus;whiteSpace=wrap;html=1;fontSize=11;spacingTop=-6;" vertex="1" parent="1">
          <mxGeometry x="386.25" y="290" width="157.5" height="100" as="geometry" />
        </mxCell>
        <mxCell id="IM_cWWmqs1kDZaDalGmC-18" value="Output Message &quot;PR Release Date Not Reached&quot;" style="shape=manualInput;whiteSpace=wrap;html=1;fontSize=11;size=13;spacingTop=7;" vertex="1" parent="1">
          <mxGeometry x="385" y="400" width="160" height="50" as="geometry" />
        </mxCell>
        <mxCell id="IM_cWWmqs1kDZaDalGmC-22" style="edgeStyle=orthogonalEdgeStyle;rounded=0;orthogonalLoop=1;jettySize=auto;html=1;exitX=0.5;exitY=1;exitDx=0;exitDy=0;entryX=0.498;entryY=0.16;entryDx=0;entryDy=0;entryPerimeter=0;" edge="1" parent="1" source="IM_cWWmqs1kDZaDalGmC-16" target="IM_cWWmqs1kDZaDalGmC-18">
          <mxGeometry relative="1" as="geometry" />
        </mxCell>
        <mxCell id="IM_cWWmqs1kDZaDalGmC-23" value="End" style="html=1;dashed=0;whiteSpace=wrap;shape=mxgraph.dfd.start;fontSize=11;" vertex="1" parent="1">
          <mxGeometry x="385" y="470" width="160" height="40" as="geometry" />
        </mxCell>
        <mxCell id="IM_cWWmqs1kDZaDalGmC-24" style="edgeStyle=orthogonalEdgeStyle;rounded=0;orthogonalLoop=1;jettySize=auto;html=1;exitX=0.5;exitY=1;exitDx=0;exitDy=0;entryX=0.5;entryY=0.5;entryDx=0;entryDy=-20;entryPerimeter=0;" edge="1" parent="1" source="IM_cWWmqs1kDZaDalGmC-18" target="IM_cWWmqs1kDZaDalGmC-23">
          <mxGeometry relative="1" as="geometry" />
        </mxCell>
        <mxCell id="IM_cWWmqs1kDZaDalGmC-25" style="edgeStyle=orthogonalEdgeStyle;rounded=0;orthogonalLoop=1;jettySize=auto;html=1;exitX=0;exitY=0.5;exitDx=0;exitDy=0;entryX=0;entryY=0.5;entryDx=0;entryDy=0;entryPerimeter=0;" edge="1" parent="1" source="IM_cWWmqs1kDZaDalGmC-14" target="IM_cWWmqs1kDZaDalGmC-23">
          <mxGeometry relative="1" as="geometry">
            <Array as="points">
              <mxPoint x="340" y="150" />
              <mxPoint x="340" y="490" />
            </Array>
          </mxGeometry>
        </mxCell>
        <mxCell id="IM_cWWmqs1kDZaDalGmC-27" value="N" style="edgeLabel;html=1;align=center;verticalAlign=middle;resizable=0;points=[];" vertex="1" connectable="0" parent="IM_cWWmqs1kDZaDalGmC-25">
          <mxGeometry x="-0.5119" y="1" relative="1" as="geometry">
            <mxPoint as="offset" />
          </mxGeometry>
        </mxCell>
        <mxCell id="IM_cWWmqs1kDZaDalGmC-28" value="Y" style="text;html=1;align=center;verticalAlign=middle;resizable=0;points=[];autosize=1;strokeColor=none;fillColor=none;" vertex="1" parent="1">
          <mxGeometry x="465" y="188" width="30" height="30" as="geometry" />
        </mxCell>
        <mxCell id="IM_cWWmqs1kDZaDalGmC-29" value="Y" style="text;html=1;align=center;verticalAlign=middle;resizable=0;points=[];autosize=1;strokeColor=none;fillColor=none;" vertex="1" parent="1">
          <mxGeometry x="465" y="380" width="30" height="30" as="geometry" />
        </mxCell>
      </root>
    </mxGraphModel>
  </diagram>
</mxfile>
